# xmcd
#
# Track frame offsets:
#   150
#   3820
#   23444
#   35582
#   61706
#   84276
#   108116
#   126858
#   149726
#   152291
#   175986
#   196160
#   201697
#   220404
#   240471
#   263931
#   282893
#   301222
#   321371
#   323791
#
# Disc length: 4539 seconds
#
# Revision: 0
# Processed by: cddbd v1.5.1PL2 Copyright (c) Steve Scherf et al.
# Submitted via: GXTranscoder 2.0.1939
#
DISCID=1011b914
DTITLE=Eminem - Encore
DYEAR=2004
DGENRE=Rap
TTITLE0=Curtains Up
TTITLE1=Evil Deeds
TTITLE2=Never Enough
TTITLE3=Yellow Brick Road
TTITLE4=Like Toy Soldiers
TTITLE5=Mosh
TTITLE6=Puke
TTITLE7=My 1st Single
TTITLE8=Paul (Skit)
TTITLE9=Rain Man
TTITLE10=Big Weenie
TTITLE11=Em Calls Paul (Skit)
TTITLE12=Just Lose It
TTITLE13=Ass Like That
TTITLE14=Spend Some Time
TTITLE15=Mockingbird
TTITLE16=Crazy In Love
TTITLE17=One Shot 2 Shot
TTITLE18=Final Thought (Skit)
TTITLE19=Encore (Curtains)
EXTD=
EXTT0=
EXTT1=
EXTT2=
EXTT3=
EXTT4=
EXTT5=
EXTT6=
EXTT7=
EXTT8=
EXTT9=
EXTT10=
EXTT11=
EXTT12=
EXTT13=
EXTT14=
EXTT15=
EXTT16=
EXTT17=
EXTT18=
EXTT19=
PLAYORDER=
